<?xml version="1.0" encoding="utf-8"?>
<!-- Generator: Adobe Illustrator 19.2.1, SVG Export Plug-In . SVG Version: 6.00 Build 0)  -->
<svg version="1.1" id="Layer_1" xmlns="http://www.w3.org/2000/svg" xmlns:xlink="http://www.w3.org/1999/xlink" x="0px" y="0px"
	 viewBox="0 0 15.5 15.9" style="enable-background:new 0 0 15.5 15.9;" xml:space="preserve">
<style type="text/css">
	.st0{fill:#FFFFFF;}
	.st1{fill:none;stroke:#FFFFFF;stroke-width:4;stroke-linecap:round;stroke-linejoin:round;stroke-miterlimit:10;}
</style>
<g>
	<g>
		<path class="st0" d="M6.8,2l0.1,0c2.6,0.1,4.7,2.3,4.7,4.9c-0.1,2.6-2.2,4.7-4.8,4.7l-0.1,0c-1.3,0-2.5-0.6-3.4-1.5
			C2.4,9.2,2,8,2,6.7C2.1,4.1,4.2,2,6.8,2 M6.8,0C3.1,0,0.1,2.9,0,6.6c-0.1,3.8,2.9,6.9,6.6,7c0.1,0,0.1,0,0.2,0
			c3.7,0,6.7-2.9,6.8-6.6c0.1-3.8-2.9-6.9-6.6-7C6.9,0,6.8,0,6.8,0L6.8,0z"/>
	</g>
	<line class="st1" x1="11.5" y1="11.7" x2="13.5" y2="13.9"/>
</g>
</svg>
